<?xml version="1.0" encoding="utf-8"?><!-- Uploaded to: SVG Repo, www.svgrepo.com, Generator: SVG Repo Mixer Tools -->
<svg fill="#000000" width="800px" height="800px" viewBox="0 0 24 24" id="handphone-lock" data-name="Line Color" xmlns="http://www.w3.org/2000/svg" class="icon line-color"><path id="secondary" d="M13,21h6a1,1,0,0,0,1-1V16a1,1,0,0,0-1-1H13a1,1,0,0,0-1,1v4A1,1,0,0,0,13,21Zm1-8v2h4V13a2,2,0,0,0-2-2h0A2,2,0,0,0,14,13Z" style="fill: none; stroke: rgb(44, 169, 188); stroke-linecap: round; stroke-linejoin: round; stroke-width: 2;"></path><path id="primary" d="M8,21H5a1,1,0,0,1-1-1V4A1,1,0,0,1,5,3H15a1,1,0,0,1,1,1V7" style="fill: none; stroke: rgb(0, 0, 0); stroke-linecap: round; stroke-linejoin: round; stroke-width: 2;"></path><polygon id="primary-2" data-name="primary" points="8.5 5 11.5 5 12 3 8 3 8.5 5" style="fill: none; stroke: rgb(0, 0, 0); stroke-linecap: round; stroke-linejoin: round; stroke-width: 2;"></polygon></svg>