<?xml version="1.0" encoding="iso-8859-1"?>
<!-- Uploaded to: SVG Repo, www.svgrepo.com, Generator: SVG Repo Mixer Tools -->
<svg fill="#000000" version="1.1" id="Layer_1" xmlns="http://www.w3.org/2000/svg" xmlns:xlink="http://www.w3.org/1999/xlink" 
	 viewBox="0 0 495.63 495.63" xml:space="preserve">
<g>
	<g>
		<path d="M368.64,186.375V2.055H0v491.52h368.64v-153.6h-20.48v51.2H20.48v-286.72h327.68v81.92H368.64z M348.16,411.655v61.44
			H20.48v-61.44H348.16z M20.48,83.975v-61.44h327.68v61.44H20.48z"/>
	</g>
</g>
<g>
	<g>
		<path d="M235.52,432.135h-102.4c-5.66,0-10.24,4.58-10.24,10.24c0,5.66,4.58,10.24,10.24,10.24h102.4
			c5.66,0,10.24-4.58,10.24-10.24C245.76,436.715,241.18,432.135,235.52,432.135z"/>
	</g>
</g>
<g>
	<g>
		<rect x="133.117" y="43.015" width="61.44" height="20.48"/>
	</g>
</g>
<g>
	<g>
		<rect x="215.037" y="43.015" width="20.48" height="20.48"/>
	</g>
</g>
<g>
	<g>
		<path d="M455.03,217.095H261.094c-12.691-35.736-46.747-61.44-86.784-61.44c-50.82,0-92.16,41.34-92.16,92.16
			s41.34,92.16,92.16,92.16c36.096,0,67.322-20.905,82.437-51.2h77.163l29.84,29.84l35.84-35.84l16.24,16.24h39.2l33.36-33.35
			l7.24-7.97L455.03,217.095z M174.31,319.495c-39.52,0-71.68-32.16-71.68-71.68s32.16-71.68,71.68-71.68s71.68,32.16,71.68,71.68
			S213.83,319.495,174.31,319.495z M446.55,278.535h-22.24l-24.72-24.72l-35.84,35.84l-21.36-21.36h-78.293
			c1.505-6.597,2.373-13.433,2.373-20.48c0-3.464-0.229-6.874-0.604-10.24H446.55l20.48,20.48L446.55,278.535z"/>
	</g>
</g>
<g>
	<g>
		<path d="M143.59,217.095c-16.94,0-30.72,13.78-30.72,30.72s13.78,30.72,30.72,30.72c16.94,0,30.72-13.78,30.72-30.72
			S160.53,217.095,143.59,217.095z M143.59,258.055c-5.65,0-10.24-4.59-10.24-10.24s4.59-10.24,10.24-10.24
			c5.65,0,10.24,4.59,10.24,10.24S149.24,258.055,143.59,258.055z"/>
	</g>
</g>
</svg>